<?xml version="1.0" encoding="UTF-8" standalone="no"?><svg xmlns="http://www.w3.org/2000/svg" xmlns:xlink="http://www.w3.org/1999/xlink" contentScriptType="application/ecmascript" contentStyleType="text/css" height="344px" preserveAspectRatio="none" style="width:191px;height:344px;" version="1.1" viewBox="0 0 191 344" width="191px" zoomAndPan="magnify"><defs><filter height="300%" id="fjuct57ir415i" width="300%" x="-1" y="-1"><feGaussianBlur result="blurOut" stdDeviation="2.0"/><feColorMatrix in="blurOut" result="blurOut2" type="matrix" values="0 0 0 0 0 0 0 0 0 0 0 0 0 0 0 0 0 0 .4 0"/><feOffset dx="4.0" dy="4.0" in="blurOut2" result="blurOut3"/><feBlend in="SourceGraphic" in2="blurOut3" mode="normal"/></filter></defs><g><rect fill="#FFFFFF" filter="url(#fjuct57ir415i)" height="246.5313" style="stroke: #A80036; stroke-width: 1.0;" width="10" x="34.5" y="48.2969"/><rect fill="#FFFFFF" filter="url(#fjuct57ir415i)" height="28" style="stroke: #A80036; stroke-width: 1.0;" width="10" x="39.5" y="77.2969"/><rect fill="#FFFFFF" filter="url(#fjuct57ir415i)" height="28" style="stroke: #A80036; stroke-width: 1.0;" width="10" x="39.5" y="178.5625"/><rect fill="#FFFFFF" filter="url(#fjuct57ir415i)" height="28" style="stroke: #A80036; stroke-width: 1.0;" width="10" x="39.5" y="250.6953"/><line style="stroke: #A80036; stroke-width: 1.0; stroke-dasharray: 5.0,5.0;" x1="39" x2="39" y1="38.2969" y2="303.8281"/><line style="stroke: #A80036; stroke-width: 1.0; stroke-dasharray: 5.0,5.0;" x1="158.5" x2="158.5" y1="38.2969" y2="303.8281"/><rect fill="#FEFECE" filter="url(#fjuct57ir415i)" height="30.2969" style="stroke: #A80036; stroke-width: 1.5;" width="59" x="8" y="3"/><text fill="#000000" font-family="sans-serif" font-size="14" lengthAdjust="spacingAndGlyphs" textLength="45" x="15" y="22.9951">Parent</text><rect fill="#FEFECE" filter="url(#fjuct57ir415i)" height="30.2969" style="stroke: #A80036; stroke-width: 1.5;" width="59" x="8" y="302.8281"/><text fill="#000000" font-family="sans-serif" font-size="14" lengthAdjust="spacingAndGlyphs" textLength="45" x="15" y="322.8232">Parent</text><rect fill="#FEFECE" filter="url(#fjuct57ir415i)" height="30.2969" style="stroke: #A80036; stroke-width: 1.5;" width="48" x="132.5" y="3"/><text fill="#000000" font-family="sans-serif" font-size="14" lengthAdjust="spacingAndGlyphs" textLength="34" x="139.5" y="22.9951">Child</text><rect fill="#FEFECE" filter="url(#fjuct57ir415i)" height="30.2969" style="stroke: #A80036; stroke-width: 1.5;" width="48" x="132.5" y="302.8281"/><text fill="#000000" font-family="sans-serif" font-size="14" lengthAdjust="spacingAndGlyphs" textLength="34" x="139.5" y="322.8232">Child</text><rect fill="#FFFFFF" filter="url(#fjuct57ir415i)" height="246.5313" style="stroke: #A80036; stroke-width: 1.0;" width="10" x="34.5" y="48.2969"/><rect fill="#FFFFFF" filter="url(#fjuct57ir415i)" height="28" style="stroke: #A80036; stroke-width: 1.0;" width="10" x="39.5" y="77.2969"/><rect fill="#FFFFFF" filter="url(#fjuct57ir415i)" height="28" style="stroke: #A80036; stroke-width: 1.0;" width="10" x="39.5" y="178.5625"/><rect fill="#FFFFFF" filter="url(#fjuct57ir415i)" height="28" style="stroke: #A80036; stroke-width: 1.0;" width="10" x="39.5" y="250.6953"/><line style="stroke: #A80036; stroke-width: 1.0;" x1="49.5" x2="91.5" y1="69.4297" y2="69.4297"/><line style="stroke: #A80036; stroke-width: 1.0;" x1="91.5" x2="91.5" y1="69.4297" y2="82.4297"/><line style="stroke: #A80036; stroke-width: 1.0;" x1="50.5" x2="91.5" y1="82.4297" y2="82.4297"/><polygon fill="#A80036" points="60.5,78.4297,50.5,82.4297,60.5,86.4297,56.5,82.4297" style="stroke: #A80036; stroke-width: 1.0;"/><text fill="#000000" font-family="sans-serif" font-size="13" lengthAdjust="spacingAndGlyphs" textLength="69" x="56.5" y="64.3638">on_setup()</text><polygon fill="#A80036" points="146.5,137.4297,156.5,141.4297,146.5,145.4297,150.5,141.4297" style="stroke: #A80036; stroke-width: 1.0;"/><line style="stroke: #A80036; stroke-width: 1.0; stroke-dasharray: 2.0,2.0;" x1="44.5" x2="152.5" y1="141.4297" y2="141.4297"/><text fill="#000000" font-family="sans-serif" font-size="13" lengthAdjust="spacingAndGlyphs" textLength="81" x="51.5" y="136.4966">fork() - failed</text><line style="stroke: #A80036; stroke-width: 2.0;" x1="149.5" x2="167.5" y1="132.4297" y2="150.4297"/><line style="stroke: #A80036; stroke-width: 2.0;" x1="149.5" x2="167.5" y1="150.4297" y2="132.4297"/><line style="stroke: #A80036; stroke-width: 1.0;" x1="49.5" x2="91.5" y1="170.6953" y2="170.6953"/><line style="stroke: #A80036; stroke-width: 1.0;" x1="91.5" x2="91.5" y1="170.6953" y2="183.6953"/><line style="stroke: #A80036; stroke-width: 1.0;" x1="50.5" x2="91.5" y1="183.6953" y2="183.6953"/><polygon fill="#A80036" points="60.5,179.6953,50.5,183.6953,60.5,187.6953,56.5,183.6953" style="stroke: #A80036; stroke-width: 1.0;"/><text fill="#000000" font-family="sans-serif" font-size="13" lengthAdjust="spacingAndGlyphs" textLength="95" x="56.5" y="165.6294">on_fork_error()</text><line style="stroke: #A80036; stroke-width: 1.0;" x1="49.5" x2="91.5" y1="242.8281" y2="242.8281"/><line style="stroke: #A80036; stroke-width: 1.0;" x1="91.5" x2="91.5" y1="242.8281" y2="255.8281"/><line style="stroke: #A80036; stroke-width: 1.0;" x1="50.5" x2="91.5" y1="255.8281" y2="255.8281"/><polygon fill="#A80036" points="60.5,251.8281,50.5,255.8281,60.5,259.8281,56.5,255.8281" style="stroke: #A80036; stroke-width: 1.0;"/><text fill="#000000" font-family="sans-serif" font-size="13" lengthAdjust="spacingAndGlyphs" textLength="64" x="56.5" y="237.7622">on_error()</text><!--
@startuml
participant Parent
participant Child

activate Parent
Parent -> Parent : on_setup()
activate Parent
deactivate Parent

Parent - -> Child : fork() - failed
destroy Child

Parent -> Parent : on_fork_error()
activate Parent
deactivate Parent

Parent -> Parent : on_error()
activate Parent
deactivate Parent

@enduml

PlantUML version 1.2017.15(Mon Jul 03 18:45:34 CEST 2017)
(GPL source distribution)
Java Runtime: OpenJDK Runtime Environment
JVM: OpenJDK 64-Bit Server VM
Java Version: 11.0.5+10-post-Ubuntu-0ubuntu1.118.04
Operating System: Linux
OS Version: 4.15.0-72-generic
Default Encoding: UTF-8
Language: de
Country: DE
--></g></svg>